<mxfile host="65bd71144e">
    <diagram id="s3_ggyqdRwXRnEjcFqcq" name="Page-1">
        <mxGraphModel dx="1582" dy="826" grid="0" gridSize="10" guides="1" tooltips="1" connect="1" arrows="1" fold="1" page="1" pageScale="1" pageWidth="827" pageHeight="1169" math="0" shadow="0">
            <root>
                <mxCell id="0"/>
                <mxCell id="1" parent="0"/>
                <mxCell id="18" value="" style="rounded=0;whiteSpace=wrap;html=1;strokeColor=#FFFFFF;rotation=0;" parent="1" vertex="1">
                    <mxGeometry x="3" y="2" width="819" height="1166" as="geometry"/>
                </mxCell>
                <mxCell id="34" style="edgeStyle=none;rounded=0;html=1;exitX=0.5;exitY=1;exitDx=0;exitDy=0;endArrow=none;endFill=0;" parent="1" source="19" target="21" edge="1">
                    <mxGeometry relative="1" as="geometry"/>
                </mxCell>
                <mxCell id="19" value="Б" style="ellipse;whiteSpace=wrap;html=1;aspect=fixed;" parent="1" vertex="1">
                    <mxGeometry x="358" y="14" width="80" height="80" as="geometry"/>
                </mxCell>
                <mxCell id="31" style="edgeStyle=none;html=1;exitX=1;exitY=0.5;exitDx=0;exitDy=0;entryX=0.5;entryY=0;entryDx=0;entryDy=0;rounded=0;endArrow=block;endFill=1;" parent="1" source="21" target="46" edge="1">
                    <mxGeometry relative="1" as="geometry">
                        <Array as="points">
                            <mxPoint x="615" y="164"/>
                        </Array>
                        <mxPoint x="608" y="183" as="targetPoint"/>
                    </mxGeometry>
                </mxCell>
                <mxCell id="53" style="edgeStyle=none;html=1;exitX=0;exitY=0.5;exitDx=0;exitDy=0;entryX=0.5;entryY=0;entryDx=0;entryDy=0;endArrow=none;endFill=0;rounded=0;" edge="1" parent="1" source="21" target="25">
                    <mxGeometry relative="1" as="geometry">
                        <Array as="points">
                            <mxPoint x="191" y="164"/>
                        </Array>
                    </mxGeometry>
                </mxCell>
                <mxCell id="21" value="Установлен ли 2-ой бит (PF)&amp;nbsp;&lt;br&gt;по адресу 0040:0314h?" style="rhombus;whiteSpace=wrap;html=1;rotation=0;" parent="1" vertex="1">
                    <mxGeometry x="268" y="114" width="260" height="100" as="geometry"/>
                </mxCell>
                <mxCell id="54" style="edgeStyle=none;html=1;exitX=0.5;exitY=1;exitDx=0;exitDy=0;endArrow=none;endFill=0;" edge="1" parent="1" source="25" target="49">
                    <mxGeometry relative="1" as="geometry"/>
                </mxCell>
                <mxCell id="25" value="Загрузка регистра флагов в стек" style="rounded=0;whiteSpace=wrap;html=1;rotation=0;" parent="1" vertex="1">
                    <mxGeometry x="61" y="199" width="260" height="100" as="geometry"/>
                </mxCell>
                <mxCell id="59" style="edgeStyle=none;rounded=0;html=1;exitX=0.5;exitY=1;exitDx=0;exitDy=0;entryX=0.5;entryY=0.5;entryDx=0;entryDy=-50;entryPerimeter=0;endArrow=none;endFill=0;" edge="1" parent="1" source="27" target="52">
                    <mxGeometry relative="1" as="geometry"/>
                </mxCell>
                <mxCell id="27" value="Восстановление регистров DS, ES, AX, DX" style="rounded=0;whiteSpace=wrap;html=1;rotation=0;" parent="1" vertex="1">
                    <mxGeometry x="268" y="724" width="260" height="100" as="geometry"/>
                </mxCell>
                <mxCell id="55" style="edgeStyle=none;rounded=0;html=1;exitX=0.5;exitY=1;exitDx=0;exitDy=0;entryX=0.5;entryY=0;entryDx=0;entryDy=0;endArrow=none;endFill=0;" edge="1" parent="1" source="46" target="50">
                    <mxGeometry relative="1" as="geometry">
                        <Array as="points">
                            <mxPoint x="615" y="454"/>
                            <mxPoint x="398" y="454"/>
                        </Array>
                    </mxGeometry>
                </mxCell>
                <mxCell id="46" value="Вызов прерывания 1Сh&lt;span style=&quot;color: rgba(0 , 0 , 0 , 0) ; font-family: monospace ; font-size: 0px&quot;&gt;%3CmxGraphModel%3E%3Croot%3E%3CmxCell%20id%3D%220%22%2F%3E%3CmxCell%20id%3D%221%22%20parent%3D%220%22%2F%3E%3CmxCell%20id%3D%222%22%20value%3D%22%D0%94%D0%B0%22%20style%3D%22text%3Bhtml%3D1%3Bresizable%3D0%3Bautosize%3D1%3Balign%3Dcenter%3BverticalAlign%3Dmiddle%3Bpoints%3D%5B%5D%3BfillColor%3Dnone%3BstrokeColor%3Dnone%3Brounded%3D0%3B%22%20vertex%3D%221%22%20parent%3D%221%22%3E%3CmxGeometry%20x%3D%22740%22%20y%3D%22210%22%20width%3D%2225%22%20height%3D%2218%22%20as%3D%22geometry%22%2F%3E%3C%2FmxCell%3E%3C%2Froot%3E%3C%2FmxGraphModel%3E&lt;/span&gt;" style="shape=process;whiteSpace=wrap;html=1;backgroundOutline=1;rotation=0;" vertex="1" parent="1">
                    <mxGeometry x="485" y="199" width="260" height="100" as="geometry"/>
                </mxCell>
                <mxCell id="56" style="edgeStyle=none;rounded=0;html=1;exitX=0.5;exitY=1;exitDx=0;exitDy=0;entryX=0.5;entryY=0;entryDx=0;entryDy=0;endArrow=none;endFill=0;" edge="1" parent="1" source="49" target="50">
                    <mxGeometry relative="1" as="geometry">
                        <Array as="points">
                            <mxPoint x="191" y="454"/>
                            <mxPoint x="398" y="454"/>
                        </Array>
                    </mxGeometry>
                </mxCell>
                <mxCell id="49" value="Косвенный вызов прерывания 1Сh" style="shape=process;whiteSpace=wrap;html=1;backgroundOutline=1;rotation=0;" vertex="1" parent="1">
                    <mxGeometry x="61" y="331" width="260" height="100" as="geometry"/>
                </mxCell>
                <mxCell id="57" style="edgeStyle=none;rounded=0;html=1;exitX=0.5;exitY=1;exitDx=0;exitDy=0;entryX=0.5;entryY=0;entryDx=0;entryDy=0;endArrow=none;endFill=0;" edge="1" parent="1" source="50" target="51">
                    <mxGeometry relative="1" as="geometry"/>
                </mxCell>
                <mxCell id="50" value="Вызов процедуры sub_1" style="shape=process;whiteSpace=wrap;html=1;backgroundOutline=1;rotation=0;" vertex="1" parent="1">
                    <mxGeometry x="268" y="478" width="260" height="100" as="geometry"/>
                </mxCell>
                <mxCell id="58" style="edgeStyle=none;rounded=0;html=1;exitX=0.5;exitY=1;exitDx=0;exitDy=0;endArrow=none;endFill=0;" edge="1" parent="1" source="51" target="27">
                    <mxGeometry relative="1" as="geometry"/>
                </mxCell>
                <mxCell id="51" value="Сброс контроллера прерываний" style="rounded=0;whiteSpace=wrap;html=1;rotation=0;" vertex="1" parent="1">
                    <mxGeometry x="268" y="601" width="260" height="100" as="geometry"/>
                </mxCell>
                <mxCell id="52" value="Конец" style="html=1;dashed=0;whitespace=wrap;shape=mxgraph.dfd.start;rotation=0;" vertex="1" parent="1">
                    <mxGeometry x="268" y="847" width="260" height="100" as="geometry"/>
                </mxCell>
                <mxCell id="60" value="Да" style="text;html=1;resizable=0;autosize=1;align=center;verticalAlign=middle;points=[];fillColor=none;strokeColor=none;rounded=0;" vertex="1" parent="1">
                    <mxGeometry x="533" y="142" width="25" height="18" as="geometry"/>
                </mxCell>
            </root>
        </mxGraphModel>
    </diagram>
</mxfile>